<svg width="90" height="92" viewBox="0 0 90 92" fill="none" xmlns="http://www.w3.org/2000/svg">
<g clip-path="url(#clip0)">
<ellipse cx="44.5" cy="47" rx="31.5" ry="32" fill="#3AB037"/>
<path d="M41.6955 2.07737C38.0674 2.37269 34.2776 3.11097 31.3596 4.10237C28.0549 5.22034 26.1002 6.0219 23.5901 7.30159C21.1643 8.53206 19.9408 9.31253 17.9299 10.8805C14.4916 13.5805 11.419 16.5477 9.55567 18.9805C7.09473 22.1938 6.15957 23.7125 4.34551 27.4532C3.36817 29.4641 3.02363 30.3782 2.04629 33.5703C1.24473 36.186 1.07598 36.8399 0.815821 38.3164C0.400977 40.6508 0.211133 41.7336 0.126758 42.3242C0.00722655 43.175 0.00722655 49.5313 0.126758 50.8461C0.358789 53.3352 0.907227 56.5696 1.48379 58.8477C1.6877 59.6422 2.44004 61.9133 2.70723 62.5391C2.83379 62.8274 2.99551 63.2422 3.05879 63.4532C3.1291 63.6641 3.24863 63.9664 3.31895 64.1141C3.39629 64.2688 3.50879 64.55 3.56504 64.7469C3.66348 65.0914 4.92207 67.6016 5.09785 67.8125C5.14707 67.8688 5.37207 68.2836 5.6041 68.7266C6.25801 69.9922 8.03692 72.8539 9.09864 74.3446C9.72442 75.2235 11.6018 77.2063 14.1682 79.7024C16.1369 81.6149 16.4674 81.9032 18.0635 83.0633C20.2994 84.6946 22.2541 85.9321 24.3986 87.0571C27.1057 88.4844 31.444 90.0946 34.4885 90.7977C35.3674 90.9946 38.2924 91.4727 39.4807 91.6133C40.0221 91.6696 40.6408 91.7539 40.8518 91.7891C41.5479 91.9157 44.3674 92.0211 45.8791 91.9719C47.3346 91.9297 48.1994 91.8594 50.4846 91.5782C53.719 91.1774 56.0252 90.6571 59.1612 89.6024C61.8049 88.7164 62.8737 88.2453 65.7424 86.7266C68.8854 85.0602 71.3604 83.443 73.2307 81.8258C73.5401 81.5586 73.9971 81.193 74.2502 81.0172C74.869 80.5813 76.676 78.8938 77.5057 77.9727C79.3409 75.9477 80.4166 74.5344 82.5893 71.2789C84.7268 68.0867 86.7377 63.7485 87.8205 60.0078C88.5096 57.6102 88.6924 56.7032 89.1565 53.293C89.3534 51.8586 89.5432 50.4875 89.5854 50.2344C89.6979 49.4961 89.7401 46.2617 89.6627 44.3985C89.5362 41.4875 89.051 38.3094 88.2776 35.3633C87.8276 33.6336 87.2159 31.8266 86.7729 30.8985C86.6534 30.6453 86.5549 30.3852 86.5549 30.3149C86.5549 30.2516 86.4143 29.9141 86.2526 29.5766C86.0838 29.2391 85.6971 28.4235 85.4018 27.7555C85.0995 27.0875 84.769 26.4125 84.6635 26.2438C84.558 26.075 84.2909 25.611 84.0659 25.2032C83.8409 24.7953 83.4823 24.1977 83.2713 23.8672C83.0604 23.5367 82.6455 22.8828 82.3502 22.4117C80.6205 19.6555 79.0526 17.7641 75.8744 14.5789C74.8198 13.5242 73.8846 12.6524 73.6174 12.4766C73.3643 12.3078 72.9424 11.9774 72.6682 11.7383C71.2409 10.4797 68.3159 8.57425 65.7073 7.18909C64.4908 6.54222 60.6307 4.8055 60.1174 4.6719C59.9416 4.62972 59.0768 4.36253 58.1838 4.07425C55.5541 3.23753 52.3338 2.57659 49.4299 2.28128C47.2362 2.06331 43.1932 1.95081 41.6955 2.07737ZM45.7315 3.26565C46.1112 3.4555 46.2026 3.47659 46.8283 3.47659C47.3838 3.47659 47.5455 3.49769 47.6721 3.60315L47.8268 3.72972L47.0815 4.5594C45.9987 5.75472 45.5627 6.45081 45.2182 7.49847C45.1268 7.76565 45.0354 7.97659 45.0072 7.97659C44.9721 7.97659 44.8947 7.82894 44.8244 7.63909C44.5924 7.02034 44.058 6.17659 43.3338 5.28362C43.0877 4.98128 42.8908 4.70706 42.8908 4.6719C42.8908 4.62972 42.8346 4.60159 42.7643 4.60159C42.5815 4.60159 42.3424 4.32034 42.2862 4.05315C42.2299 3.78597 42.3002 3.75081 43.2072 3.58909C43.7135 3.50472 43.8963 3.4344 44.1846 3.2305C44.5151 2.99144 44.5713 2.97737 44.9299 3.01253C45.1619 3.03362 45.4783 3.13206 45.7315 3.26565ZM52.6432 3.83519C53.1987 3.9055 54.844 4.29925 55.4557 4.50315C55.9198 4.65784 56.8198 5.11487 58.3666 5.97972C59.9627 6.87269 60.5885 7.09769 62.0862 7.34378C62.6346 7.43519 63.0002 7.57581 63.0002 7.70237C63.0002 7.843 62.3323 8.48284 61.833 8.82034C60.9401 9.41097 60.3283 9.55862 59.4073 9.38284C58.8307 9.27034 58.444 9.05237 58.2401 8.7219C58.008 8.35628 57.5088 7.81487 56.7424 7.11175C56.2713 6.67581 55.9901 6.48597 55.4416 6.21878C54.4291 5.73362 53.4869 5.45237 53.3955 5.60003C53.3182 5.72659 53.733 6.03597 54.2744 6.2469C55.0408 6.54925 55.9901 7.21722 56.8198 8.03987C57.5791 8.79925 57.8674 9.21409 57.8674 9.57972C57.8674 9.80472 57.2627 10.775 56.9744 10.993C56.8127 11.1266 56.6932 11.1407 55.8494 11.1407C55.1885 11.1407 54.8369 11.1125 54.6682 11.0422C54.3518 10.9086 54.0635 10.4516 53.8174 9.70628C53.5854 9.00315 53.1565 8.15237 52.8401 7.78675C52.601 7.5055 52.0033 7.13284 51.926 7.21722C51.8557 7.28753 52.0104 7.54065 52.4744 8.11722C53.1565 8.97503 53.4096 9.67112 53.3533 10.55C53.3323 10.9157 53.2901 11.0422 53.1143 11.2532C52.6924 11.7805 51.9752 11.9774 51.0612 11.8157C50.4494 11.7102 49.9432 11.4922 49.676 11.2321C49.4229 10.9719 49.451 10.8172 49.7815 10.6485C50.1471 10.4586 50.2877 10.1703 50.3299 9.51644C50.358 9.07347 50.3369 8.93987 50.2104 8.68675C49.9502 8.1805 49.2752 8.03284 48.6565 8.34222C48.3963 8.47581 48.2979 8.58128 48.1291 8.92581C47.9393 9.3055 47.9182 9.41097 47.9182 10.0157C47.9182 10.6203 47.9393 10.7258 48.1432 11.1688C48.5791 12.0758 49.7252 12.9196 50.801 13.1164C51.476 13.243 52.6924 13.1516 54.0354 12.8703C55.3854 12.5961 56.1518 12.343 57.9729 11.5836C60.5533 10.5149 62.1987 10.0508 63.8791 9.93128C65.1448 9.8469 66.2909 9.90315 67.0502 10.086C68.8924 10.5289 70.0596 11.225 71.2057 12.5469C72.5205 14.0657 72.858 16.1821 72.0916 18.0875C71.5221 19.5149 70.5729 20.4782 69.1315 21.0899C68.0416 21.5469 67.5635 21.6524 66.5159 21.6524C65.4541 21.6524 65.0252 21.5539 64.0549 21.0899C63.4291 20.7805 62.9932 20.4852 61.376 19.2196C59.3721 17.6516 58.683 17.2649 57.2346 16.8992C56.7916 16.7867 56.3979 16.6602 56.3627 16.625C56.2502 16.5125 56.5807 15.943 56.9604 15.5703C57.769 14.7688 59.2174 14.4102 60.033 14.811C60.476 15.0219 61.151 15.711 61.5658 16.3719C62.0088 17.0821 62.8526 18.2211 63.1338 18.4813C63.3237 18.6641 63.3518 18.6711 63.394 18.5586C63.4502 18.418 63.3518 18.2352 62.7823 17.4477C62.5573 17.1313 62.1846 16.5055 61.9526 16.0625C61.1862 14.5719 61.1932 14.4032 62.058 13.5524C62.3885 13.2289 62.7401 12.9477 62.8315 12.9266C62.9369 12.8985 63.1198 12.9266 63.2674 12.9969C63.408 13.0602 63.7526 13.1375 64.0268 13.1797C64.294 13.2149 64.6948 13.3203 64.9057 13.4188L65.2924 13.5875L65.2291 14.2133C65.1377 15.1485 65.208 16.0766 65.4119 16.6602C65.7002 17.4899 66.0237 18.0524 66.1432 17.9399C66.1573 17.9188 66.0518 17.4477 65.8971 16.8922C65.7424 16.3367 65.5948 15.7391 65.5666 15.5492C65.4682 14.8321 65.8619 13.7352 66.2768 13.5594C66.5862 13.4328 67.3666 13.4328 67.683 13.5664C67.9994 13.693 68.8573 14.5227 69.0049 14.8321C69.251 15.3524 69.1315 15.5703 68.5549 15.6547C67.5987 15.7813 66.9799 16.5617 67.2119 17.3422C67.2682 17.511 67.444 17.7711 67.6619 17.9961C67.9713 18.3125 68.0768 18.3758 68.3721 18.418C69.1948 18.5446 69.933 18.1438 70.3198 17.3633C70.5026 16.9907 70.5448 16.8008 70.5799 16.2875C70.6432 15.1203 70.2776 14.1852 69.4057 13.3203C68.4002 12.3219 67.3315 11.9282 65.426 11.8649C63.2674 11.7875 61.9666 12.118 58.7815 13.5313C57.6987 14.0094 57.2557 14.1641 56.1448 14.4453C54.1971 14.9375 53.1776 15.0992 51.9612 15.1063C50.4565 15.1133 49.5494 14.8672 48.2697 14.0938C47.5737 13.6719 47.0463 13.1305 46.6244 12.3852C45.9424 11.1828 45.7455 10.3953 45.7947 9.13675C45.8651 7.49847 46.3994 6.50003 47.8901 5.22737C49.1697 4.13753 50.0346 3.793 51.5533 3.76487C51.8487 3.76487 52.3408 3.793 52.6432 3.83519ZM38.9744 4.20784C40.3455 4.47503 41.808 5.143 42.5112 5.83206C43.0033 6.31722 43.594 7.18206 43.7908 7.71644C43.9455 8.12425 44.1283 9.03831 44.1987 9.7344C44.3252 11.0774 43.4112 12.8422 41.9979 13.9742C40.6408 15.0571 39.5932 15.4297 37.8916 15.4297C36.0705 15.4297 34.594 15.0711 32.3369 14.0938C31.7322 13.8266 31.0854 13.5664 30.8955 13.5102C30.7057 13.4539 29.7776 13.1024 28.8283 12.7367C26.6979 11.9071 26.6135 11.8789 25.7205 11.6961C24.3916 11.4219 22.669 11.5203 21.6916 11.9352C20.433 12.4555 19.4065 13.5524 19.0408 14.7477C18.858 15.3594 18.8861 16.2735 19.1111 16.7797C19.4205 17.4758 20.0463 17.961 20.6369 17.961C21.2416 17.961 21.5932 17.6516 21.7268 16.9977C21.8815 16.2735 21.7268 16.0485 20.7775 15.5633C20.5315 15.4438 20.5315 15.2891 20.7494 14.818C20.9182 14.4664 21.326 14.15 21.8674 13.9461C22.444 13.7282 23.3088 13.7774 23.8221 14.0586C24.2651 14.2977 24.5393 14.7055 24.5393 15.1063C24.5393 15.4297 24.2651 16.2735 23.9276 16.9696C23.7518 17.3422 23.5268 17.6516 23.119 18.0735C22.8025 18.4039 22.5705 18.6852 22.5986 18.7133C22.6197 18.7344 22.8025 18.6852 22.9994 18.5867C23.7236 18.2492 24.5955 17.0469 24.8135 16.0977C24.8557 15.9008 24.919 15.4578 24.9611 15.1133C25.0596 14.2485 25.2002 13.8125 25.4322 13.5875C25.6924 13.3485 25.8401 13.2782 26.6768 12.9899L27.3869 12.7508L27.7947 13.1938C28.3643 13.8125 28.6174 14.2555 28.6174 14.6703C28.6174 15.1133 28.2096 15.8938 27.4713 16.8711C26.5994 18.0102 26.4307 18.2633 26.501 18.3336C26.5432 18.3758 26.6486 18.3407 26.7752 18.2492C27.1197 18.0102 28.0479 16.9907 28.5752 16.2735C28.8494 15.9078 29.2924 15.3735 29.5666 15.0922L30.0658 14.586H30.551C31.1486 14.593 31.7885 14.7196 32.1682 14.9164C32.794 15.2399 33.7502 16.2032 33.7502 16.5055C33.7502 16.5828 33.6588 16.6321 33.4901 16.6602C32.2385 16.8571 32.0416 16.9414 29.9182 18.2914C26.1213 20.6961 24.8486 21.2024 22.7815 21.0969C21.34 21.0336 20.0744 20.675 19.3432 20.1266C18.7033 19.6555 17.8947 18.7836 17.6908 18.3547C17.3393 17.6094 17.0299 15.8657 17.1072 15.0219C17.1565 14.4453 17.5221 13.2711 17.7963 12.786C17.9088 12.5891 18.0002 12.3782 18.0002 12.3149C18.0002 12.2516 18.1057 12.1321 18.2322 12.0407C18.3518 11.9563 18.7455 11.661 19.09 11.3867C20.9182 9.9594 23.2033 9.36175 25.5236 9.69222C27.6541 10.0016 27.9776 10.1 31.6971 11.5907C35.1916 12.9899 35.7471 13.1586 37.1955 13.2289C39.8744 13.3625 41.5619 12.3711 41.9135 10.4657C42.0682 9.61487 41.808 8.67269 41.3088 8.28597C40.6549 7.79378 39.6565 8.26487 39.6565 9.0805C39.6565 9.5094 39.8533 9.81175 40.3244 10.093C40.5565 10.2336 40.7885 10.4305 40.8377 10.536C40.9221 10.6977 40.9151 10.761 40.7815 11.0352C40.3807 11.8719 38.7986 12.3992 37.8424 12.0196C37.069 11.7102 36.7174 10.7117 37.0408 9.76956C37.1111 9.57269 37.4276 8.99612 37.751 8.48284C38.0744 7.96956 38.3205 7.53362 38.2994 7.51253C38.2291 7.43519 37.526 8.03987 37.2447 8.41956C36.8721 8.91878 36.5979 9.47425 36.3447 10.2617C36.0213 11.2602 35.7682 11.4289 34.3619 11.5696C33.8486 11.6188 33.5744 11.6188 33.483 11.5696C33.3635 11.5063 33.033 11.0211 32.5619 10.2196L32.4002 9.93831L32.5901 9.57269C33.0682 8.63753 34.0455 7.51253 35.1776 6.57737C35.7822 6.07815 35.8947 5.93753 35.6838 5.93753C35.2479 5.93753 34.4533 6.53519 32.8291 8.09612C31.5213 9.34769 31.1065 9.63597 30.5088 9.72737C30.0729 9.79769 29.2221 9.71331 28.751 9.55862C27.9213 9.27737 27.0213 7.9344 27.3377 7.43519C27.3658 7.38597 27.5838 7.28753 27.8088 7.21019C29.0955 6.79534 30.6072 6.22581 31.5283 5.82503C32.9627 5.19222 33.6869 4.918 34.6854 4.62972C36.3869 4.13753 37.8565 3.9969 38.9744 4.20784ZM45.2393 13.1375C45.5979 13.5102 45.7385 14.1219 45.5135 14.3188C45.3166 14.4946 44.8104 14.7266 44.6346 14.7266C44.3885 14.7266 43.7557 14.4032 43.6643 14.2344C43.5096 13.9391 43.8822 13.2922 44.3533 13.0391C44.7471 12.8352 44.9791 12.8563 45.2393 13.1375ZM16.3549 15.1344C16.3619 16.5196 16.4885 17.4617 16.7768 18.2914C16.8752 18.5797 16.9385 18.8328 16.9174 18.861C16.8893 18.8821 16.608 18.8188 16.2916 18.7133C15.9682 18.6078 15.4408 18.4883 15.1174 18.4461C14.5549 18.3688 13.2049 18.3899 12.1854 18.4953C11.9393 18.5235 11.7424 18.5164 11.7424 18.4953C11.7424 18.3336 12.0869 17.8344 12.4385 17.4899C12.8252 17.1032 12.8533 17.0539 12.9025 16.6602C12.9658 16.1469 13.1838 15.7461 13.6127 15.3664C13.901 15.1133 13.9854 15.0782 14.2736 15.0782C14.6463 15.0782 14.9346 14.9024 15.469 14.3399C15.8627 13.925 16.1791 13.7211 16.2705 13.8125C16.3127 13.8547 16.3479 14.4242 16.3549 15.1344ZM73.6315 14.5649C73.8494 14.6914 74.1166 14.8742 74.2291 14.9657C74.5104 15.1977 74.7073 15.2891 74.9182 15.2891C75.4315 15.2891 76.0221 15.8516 76.1557 16.4703C76.2401 16.8782 76.2471 16.8852 77.0487 17.5953C77.3229 17.8344 77.6112 18.1227 77.6885 18.2282L77.8221 18.425L76.7252 18.3969C75.4104 18.3617 74.7635 18.4602 73.5963 18.875C73.1674 19.0297 72.8018 19.1422 72.7877 19.1211C72.7666 19.1 72.8159 18.868 72.9073 18.6078C73.1955 17.7219 73.2588 15.6266 73.0198 14.6774C72.9705 14.4805 72.9424 14.2977 72.9635 14.2766C73.0127 14.2274 73.1744 14.2977 73.6315 14.5649ZM47.883 15.9641C50.6041 16.2383 53.6979 17.0188 56.5666 18.1508C57.6916 18.5938 60.0541 19.761 60.9963 20.3305C61.3408 20.5485 61.6994 20.7453 61.7908 20.7805C61.8752 20.8157 61.9455 20.8719 61.9455 20.9071C61.9455 20.9422 62.1424 21.0899 62.3744 21.2375C63.4291 21.8774 65.6018 23.6703 66.7268 24.8235C68.2455 26.3844 70.0385 28.5289 70.3549 29.1617C70.4604 29.3657 70.8893 30.0828 71.3182 30.7578C72.401 32.4875 73.8424 35.4688 74.4541 37.2477C74.9955 38.8297 75.4596 40.7211 75.6846 42.3242C75.8323 43.3719 76.008 45.5235 76.008 46.3321C76.008 47.1125 75.8252 50.1852 75.7198 51.1836C75.6354 52.0344 74.9885 55.1211 74.8057 55.5922C74.7354 55.775 74.6088 56.1828 74.5315 56.5063C74.1799 57.8633 72.9776 60.6828 71.9018 62.6446C71.051 64.1914 70.7065 64.7047 69.5182 66.1461C67.676 68.3961 66.9307 69.1836 65.0041 70.8782C62.8455 72.7766 61.9385 73.4024 59.6604 74.5555C56.5596 76.1375 53.501 77.2485 50.8713 77.7547C49.4651 78.0219 49.1487 78.0641 47.6018 78.1836C45.8018 78.3172 44.9932 78.3172 42.8135 78.1836C41.3229 78.0922 40.8518 78.036 39.4385 77.7617C37.0549 77.3047 35.5713 76.8969 33.8768 76.243C32.8643 75.8563 31.3385 75.1883 30.5721 74.8016C26.9299 72.9735 22.908 69.7883 20.644 66.9407C18.3025 64.0016 15.708 59.0305 14.7658 55.6696C14.3721 54.2844 13.9502 51.8657 13.6268 49.2149C13.4791 47.9563 13.5143 44.9891 13.7041 43.4141C13.9713 41.1711 14.5338 38.6961 15.1877 36.875C16.0244 34.5547 16.1932 34.161 17.1775 32.1992C17.9299 30.7016 18.3307 30.0336 19.1955 28.8594C21.2275 26.1032 23.7869 23.5719 26.4377 21.6875C28.2729 20.3797 30.6494 19.1141 33.3916 17.961C36.2463 16.7727 39.8182 15.9992 43.2424 15.8235C44.1987 15.7742 46.8424 15.8516 47.883 15.9641ZM14.8854 19.1563C15.4971 19.2055 15.7854 19.2617 16.165 19.4235C16.7416 19.6696 17.4518 20.1547 17.7893 20.5414C19.2869 22.243 19.8354 25.3016 19.0057 27.3125C18.8721 27.643 18.6471 28.1 18.5065 28.3321C18.0354 29.1196 16.8822 30.793 16.4252 31.3485C15.933 31.9602 15.2932 33.1555 14.8361 34.3227C14.6885 34.6953 14.5197 35.0399 14.4494 35.0821C14.351 35.1383 14.2596 35.075 13.915 34.7094C13.3525 34.0907 13.2119 33.7039 13.1627 32.6071C13.1346 31.8336 13.1416 31.7282 13.2822 31.4399C13.465 31.0672 13.8307 30.7157 14.3158 30.4414C15.6588 29.6821 16.8822 28.4938 17.5783 27.2774C17.9932 26.5461 18.2815 25.5547 18.0705 25.5547C18.0354 25.5547 18.0002 25.6461 18.0002 25.7586C18.0002 25.8711 17.951 26.0117 17.8947 26.075C17.8315 26.1313 17.6908 26.3633 17.5713 26.5883C16.7908 28.0719 15.0049 29.6258 13.6197 30.0196C12.9518 30.2094 12.3682 30.0477 11.3486 29.3867C11.0041 29.1688 10.7088 28.9719 10.6947 28.9578C10.6525 28.9157 11.4822 27.2985 11.651 27.0946C11.8479 26.8625 12.1361 26.7922 13.5775 26.6446C15.1736 26.4828 15.6588 26.286 16.3408 25.5547C16.6994 25.161 16.9174 24.7391 16.8611 24.5563C16.8471 24.5141 16.594 24.7039 16.3057 24.9852C15.6799 25.5969 15.3283 25.7938 14.5619 25.9344C12.6635 26.293 11.7213 25.7235 11.7283 24.2188C11.7354 23.811 11.7775 23.5719 11.89 23.3047C12.1502 22.7071 13.0221 22.0391 13.5565 22.0391C13.8096 22.0391 13.8799 22.1375 13.9572 22.6016C14.0205 22.9742 14.2104 23.2696 14.4846 23.4102C14.9065 23.6282 15.265 23.5086 15.7361 22.9953C15.9893 22.7211 16.0315 22.6297 16.0315 22.3766C16.0315 21.9899 15.701 21.2867 15.4057 21.0336C15.1174 20.7946 14.8291 20.7383 13.8869 20.7453C13.001 20.7524 12.6635 20.8508 11.9815 21.3149C10.8072 22.1164 10.301 23.143 9.94239 25.4492C9.7877 26.4477 9.84395 27.2422 10.1182 28.2266C10.4065 29.2391 11.0604 31.1446 11.4049 31.9532C12.4244 34.3578 12.769 35.4125 13.1557 37.2969C13.3315 38.1969 13.3736 38.5555 13.3736 39.336C13.3736 40.7492 13.1346 41.9727 12.6916 42.8516C12.2557 43.7164 11.0252 44.975 10.2096 45.4039C9.27442 45.8961 8.8877 45.9805 7.59395 45.9805C6.31426 45.9805 5.92051 45.8961 4.87988 45.418C3.25567 44.6727 2.05332 42.9992 1.75098 41.0797C1.56113 39.8774 1.91973 37.2547 2.46113 35.8203C2.63692 35.3703 3.20645 34.2383 4.00098 32.7617C4.53535 31.7774 4.83067 31.0883 5.30879 29.7524C5.41426 29.45 5.55489 29.1336 5.6252 29.0492L5.75176 28.8946L6.06114 29.0422C6.22989 29.1266 6.55332 29.3586 6.77129 29.5625C7.31973 30.0617 7.4041 30.3641 7.36895 31.6649C7.34082 32.7969 7.43223 32.6352 6.13145 34.0555C5.1541 35.1242 4.78848 35.6305 4.42285 36.418C4.14863 37.0227 3.89551 37.8383 3.95879 37.9086C3.97988 37.9227 4.11348 37.7258 4.26113 37.4727C4.67598 36.7203 5.30879 35.9117 6.04004 35.1805C6.90489 34.3227 7.27754 34.0977 7.81192 34.1117C8.02989 34.1117 8.31114 34.175 8.44473 34.2383C8.90176 34.4774 9.7877 35.1383 9.85801 35.3C9.91426 35.4196 9.91426 35.6586 9.85098 36.1438C9.71036 37.3039 9.59082 37.4235 8.1002 37.9367C7.14395 38.2672 6.65176 38.5133 6.11035 38.9422C5.6041 39.336 5.08379 40.1094 5.32989 40.1094C5.35801 40.1094 5.59707 39.9196 5.86426 39.6946C7.23535 38.5274 8.67676 38.1125 9.35176 38.6821C9.64004 38.9211 9.75254 39.1602 9.84395 39.7016C9.92832 40.2571 9.83692 40.8617 9.59786 41.2696C9.36582 41.6703 8.88067 42.1485 8.71192 42.1485C8.62754 42.1485 8.45176 42.0289 8.30411 41.8883C8.16348 41.7477 7.94551 41.5578 7.81192 41.4664C7.36192 41.1641 6.69395 41.2977 6.19473 41.7969C5.99785 42.0008 5.97676 42.0571 5.97676 42.4719C5.97676 43.5055 6.56739 43.9696 7.79785 43.8852C9.61192 43.7586 10.6807 42.8305 11.1518 40.9672C11.6088 39.1602 11.1729 37.2336 9.36582 33.1133C7.95254 29.886 7.66426 28.7821 7.66426 26.6305C7.66426 24.2258 8.33223 22.236 9.55567 20.9633C10.6807 19.7891 11.6932 19.2758 13.1065 19.1563C14.0346 19.0789 14.0275 19.0789 14.8854 19.1563ZM77.4494 19.2969C78.6307 19.5922 79.9034 20.4078 80.5573 21.2867C81.0213 21.9125 81.4995 22.9672 81.8791 24.1836L82.2096 25.2383L82.1745 26.7852C82.1463 28.093 82.1112 28.4586 81.9565 29.1758C81.6823 30.4625 81.183 31.8477 80.2971 33.7813C79.1862 36.2141 78.8838 36.8961 78.6026 37.6836L78.3002 38.5274L78.2721 39.7367C78.244 41.0305 78.3002 41.3961 78.6448 42.0782C79.0737 42.9219 80.1002 43.7094 81.2393 44.0539C81.6963 44.1875 82.4768 44.1524 82.8213 43.9766C83.4752 43.6461 83.9534 43.0485 83.9534 42.5563C83.9534 42.2047 83.637 41.6282 83.2713 41.3047C83.0112 41.0797 82.8987 41.0235 82.6666 41.0235C82.1463 41.0235 81.7034 41.4453 81.5979 42.043C81.5065 42.5914 81.2393 42.6899 80.6627 42.4016C79.9948 42.0641 79.4604 41.375 79.3127 40.6578C79.1721 39.9688 79.3198 39.5258 79.8471 39.0617C80.5643 38.436 81.3659 38.225 82.1674 38.4571C82.962 38.6891 83.3909 38.9563 84.0377 39.6383C84.6284 40.2571 84.6565 40.2782 84.6565 40.0742C84.6495 39.5821 83.5877 38.4782 82.7229 38.0774C82.4909 37.9649 82.062 37.8242 81.7737 37.7539C80.9018 37.55 80.5995 37.3953 80.501 37.1C80.4096 36.8188 80.4518 35.6164 80.5713 35.3141C80.6205 35.1805 80.8174 35.0328 81.2393 34.8008C81.9354 34.4282 82.2307 34.386 82.7159 34.618C83.2502 34.8782 84.5159 36.3125 85.4932 37.7821C85.7041 38.0985 85.894 38.3375 85.908 38.2953C85.9502 38.1688 85.5776 37.3532 85.1909 36.6992C84.9799 36.3477 84.544 35.75 84.2276 35.3633C83.4541 34.4352 82.8073 33.5141 82.533 32.9586C82.3502 32.586 82.301 32.3961 82.2799 31.925C82.2026 30.5188 82.8424 29.3094 83.9252 28.8102C84.4174 28.5852 84.4877 28.6414 84.551 29.2672C84.6284 30.0477 84.7971 30.8914 85.0221 31.6016C85.2682 32.368 85.3807 32.6211 85.6057 32.8672C85.7955 33.0852 86.7799 34.9555 86.9698 35.4758C87.2088 36.1227 87.5955 37.6555 87.687 38.3164C87.8346 39.336 87.8135 40.9672 87.6518 41.5157C87.3284 42.6125 86.562 43.9555 85.8448 44.6938C85.1627 45.3899 84.1221 45.7836 82.5401 45.9453C81.2815 46.0719 80.1776 45.9242 79.3971 45.5305C78.1666 44.9117 77.2807 43.8922 76.7815 42.5141C76.1416 40.7633 76.1276 39.2867 76.7182 36.9172C77.0135 35.7571 77.126 35.4477 77.9276 33.6407C78.3073 32.7688 78.701 31.8336 78.7994 31.5664C78.8979 31.2922 79.0596 30.8844 79.1721 30.6524C79.5026 29.9492 79.8682 28.775 79.9526 28.1563C80.0721 27.2563 79.9948 25.1047 79.812 24.3805C79.3479 22.5313 78.2932 21.3711 76.6901 20.9422C76.2612 20.8297 75.5862 20.8157 75.2346 20.9141C74.5034 21.118 73.8987 21.793 73.8987 22.3977C73.8987 22.693 73.9268 22.7492 74.1869 22.9883C74.5948 23.361 75.1784 23.6141 75.4948 23.5649C75.8252 23.5086 76.2752 23.2063 76.4159 22.9391C76.6409 22.5383 76.7885 22.3907 76.9784 22.3907C77.4635 22.3907 78.258 23.0375 78.258 23.4383C78.258 23.5438 78.3213 23.7196 78.3987 23.818C78.5744 24.043 78.5744 24.2258 78.3987 24.7953C78.2651 25.2242 77.9487 25.7586 77.7026 25.9625C77.4354 26.1805 77.0135 26.3282 76.6198 26.3282C75.9377 26.3282 75.2557 26.0399 73.9409 25.1891C73.7088 25.0414 73.5119 24.936 73.4979 24.95C73.4346 25.0133 73.7932 25.5969 74.0955 25.9203C74.4682 26.3211 75.0799 26.6305 75.6916 26.743C75.9237 26.7852 76.6127 26.8485 77.2244 26.8907C77.8362 26.9258 78.3987 26.9891 78.469 27.0313C78.6799 27.1438 78.7362 27.3055 78.7854 27.9453C78.8065 28.2758 78.8627 28.7469 78.9119 28.993L78.9893 29.443L78.6096 29.7875C78.0541 30.2867 77.5619 30.6032 77.2385 30.6735C76.8026 30.7719 76.1838 30.6102 75.4315 30.2024C74.883 29.9071 74.5948 29.675 73.6666 28.7961C72.619 27.7977 72.1409 27.3899 72.1409 27.4883C72.1409 27.7133 73.2518 29.1336 73.9057 29.7313C74.419 30.2094 75.2135 30.7438 76.0502 31.1727C77.1119 31.7211 77.4002 32.0938 77.3229 32.8461C77.2244 33.8094 76.0432 35.518 75.5159 35.4547C75.326 35.4336 75.2487 35.293 74.5385 33.7602C74.1307 32.8813 73.1955 31.3485 71.9651 29.5274C71.0932 28.2407 70.826 27.7836 70.6643 27.2774C70.6151 27.1227 70.5237 26.9258 70.4674 26.8344C70.2354 26.4828 70.4955 24.2891 70.9174 23.0305C71.1565 22.3203 71.4869 21.8422 72.3096 21.0125C73.3713 19.9508 74.3909 19.325 75.326 19.1563C75.8393 19.0649 76.7815 19.1282 77.4494 19.2969ZM21.7338 22.9461C22.0432 23.2555 22.0713 23.4102 21.8744 23.8321C21.6916 24.2399 21.4877 24.3946 21.1361 24.3946C20.7916 24.3946 20.4752 24.1907 20.2854 23.8461C20.1236 23.5367 20.1799 23.3188 20.5244 22.9532C20.7635 22.7 20.8268 22.6719 21.1291 22.6719C21.4244 22.6719 21.4947 22.7071 21.7338 22.9461ZM68.5268 23.0446C68.9487 23.4242 68.9487 24.1063 68.5338 24.3594C68.2877 24.5141 67.7252 24.5492 67.4932 24.4297C67.0151 24.1696 67.0502 23.1922 67.5565 22.925C67.894 22.7422 68.2455 22.7844 68.5268 23.0446ZM1.72988 43.7094C1.8002 43.8782 2.1166 44.2649 2.42598 44.5813C3.30488 45.4672 4.30332 46.1141 5.4002 46.5078C5.63926 46.5922 5.83614 46.6907 5.83614 46.7117C5.83614 46.8102 5.43535 47.1266 4.88692 47.4571C3.67051 48.1953 2.96738 48.8141 2.21504 49.8266C2.01816 50.0867 1.82832 50.3047 1.7791 50.3047C1.73691 50.3047 1.58223 50.0797 1.44863 49.8055C1.20957 49.3274 1.19551 49.2641 1.19551 48.6032C1.19551 47.9703 1.17441 47.8719 0.977539 47.4782C0.717383 46.9719 0.724414 46.7258 1.00566 46.0157C1.13223 45.6992 1.19551 45.3547 1.23066 44.8907C1.27285 44.2227 1.44863 43.4141 1.54707 43.4141C1.5752 43.4141 1.65254 43.5477 1.72988 43.7094ZM88.4182 43.9907C88.6291 44.9539 88.6432 45.0664 88.587 45.2211C88.4745 45.5235 88.5166 45.8961 88.7346 46.4375C89.0018 47.1266 89.0088 47.45 88.7416 47.8157C88.5448 48.0758 88.5377 48.1321 88.5096 48.9336C88.4955 49.5875 88.4534 49.8477 88.3479 50.0797L88.2073 50.3821L87.912 49.9321C87.5815 49.4258 86.4846 48.35 85.7463 47.7946C85.4721 47.5907 85.008 47.2953 84.7127 47.1336C84.4104 46.9719 84.1854 46.8172 84.1995 46.7821C84.2205 46.7539 84.544 46.5641 84.9166 46.3672C86.0416 45.7625 86.6955 45.2914 87.694 44.3492C87.9963 44.068 88.2705 43.836 88.3127 43.836C88.3479 43.836 88.3971 43.9063 88.4182 43.9907ZM11.9815 46.2196C12.2697 46.4094 12.4455 46.7117 12.4455 47.0282C12.4455 47.2461 12.3963 47.3446 12.1994 47.5344C12.0588 47.661 11.8268 47.8086 11.6721 47.8508C11.3486 47.9492 11.1236 47.8367 10.8986 47.4711C10.744 47.225 10.7088 46.6625 10.8283 46.4375C11.0111 46.1 11.6229 45.9875 11.9815 46.2196ZM78.3354 46.5008C78.6518 46.8102 78.694 47.0844 78.469 47.3657C78.2018 47.7032 77.5268 47.9 77.4424 47.668C77.4143 47.6117 77.358 47.5625 77.3088 47.5625C77.126 47.5625 76.9924 47.3446 76.9924 47.0633C76.9924 46.536 77.2666 46.2336 77.7588 46.2266C78.019 46.2266 78.1034 46.2617 78.3354 46.5008ZM8.48692 47.7102C11.3135 48.0266 12.7268 49.6508 13.5072 53.4969C13.7463 54.6852 13.7393 54.8961 13.3596 56.3516C13.1065 57.3149 12.8182 58.0461 12.0447 59.6844C11.7213 60.3805 11.3908 61.1258 11.3205 61.3367C11.2502 61.5547 11.0252 62.0891 10.8283 62.5321C10.0408 64.2758 9.75254 65.1688 9.63301 66.2446C9.49942 67.5032 9.75254 69.2469 10.2025 70.1469C10.6455 71.0328 11.4963 71.9047 12.2768 72.2563C12.565 72.3899 12.7408 72.418 13.3947 72.418C14.0416 72.418 14.2244 72.3899 14.4986 72.2633C15.5393 71.7852 16.0244 70.8219 15.6025 70.0696C15.2018 69.3524 14.1471 69.1625 13.669 69.7321C13.4861 69.95 13.4791 69.9641 13.5213 70.7446C13.5424 71.1805 13.5494 71.5391 13.5354 71.5391C13.2541 71.5391 12.3541 71.3563 12.1713 71.2578C11.7354 71.0399 11.433 70.6039 11.1869 69.8727C10.9619 69.2047 10.99 68.8391 11.3205 68.1922C11.8338 67.1586 12.2416 66.9055 13.1697 67.0321C14.4143 67.2078 15.6869 67.8477 15.8557 68.3821C15.926 68.593 16.0315 68.5367 16.0315 68.2907C16.0315 68.1078 15.9541 67.9883 15.6236 67.6719C14.9627 67.025 14.0557 66.6594 12.9236 66.5821C11.3838 66.4766 11.1869 66.35 10.8213 65.2883C10.5541 64.4867 10.5471 64.5078 11.1025 63.8469C11.6088 63.2422 11.7705 63.1438 12.3119 63.1157C13.3947 63.0524 14.5549 63.65 16.2072 65.1336C16.5588 65.443 16.8471 65.668 16.8611 65.6328C16.9947 65.2391 15.3213 63.6219 14.0135 62.8836C13.0783 62.3633 12.7268 61.9485 12.7268 61.3789C12.7338 60.8867 12.9025 60.0078 13.0432 59.7266C13.2119 59.4032 14.119 58.5172 14.2596 58.5453C14.3299 58.5594 14.6252 59.0657 15.0119 59.8321C15.3565 60.5282 15.9049 61.4914 16.2143 61.9766C16.5307 62.4617 16.84 62.968 16.9104 63.1016C16.9807 63.2352 17.2197 63.6289 17.4377 63.9805C18.1197 65.0563 18.7033 66.0969 18.851 66.5117C19.076 67.1446 19.1604 68.361 19.0619 69.4508C18.9283 70.9063 18.5908 71.7008 17.726 72.6149C16.8541 73.5289 15.9611 74.1125 15.019 74.3867C14.4283 74.5625 12.4315 74.5063 11.651 74.2953C10.744 74.0492 10.2307 73.7539 9.58379 73.1071C9.07754 72.6008 8.95098 72.418 8.62051 71.736C8.11426 70.6953 7.86114 69.9852 7.63614 68.9938C7.4041 67.9532 7.4041 67.4469 7.66426 66.0758C8.12129 63.6149 8.68379 61.9625 10.0479 59.0305C11.1588 56.661 11.5244 55.2547 11.44 53.6867C11.3768 52.3508 10.8986 51.2047 10.0971 50.4032C9.42207 49.7422 9.11973 49.6016 8.36036 49.6016C7.5377 49.6016 7.27051 49.693 6.87676 50.0938C6.44082 50.5508 6.33535 50.8883 6.49707 51.3242C6.74317 51.9711 7.22832 52.2453 7.70645 52.0203C7.9666 51.8938 8.50801 51.2821 8.50801 51.1063C8.50801 50.8321 9.24629 51.1836 9.6752 51.6617C10.0338 52.0625 10.1955 52.4985 10.2447 53.2367C10.2799 53.6727 10.2658 53.7711 10.1322 53.9891C9.81582 54.4883 9.07051 54.9383 8.4377 54.9946C8.12832 55.0227 7.9666 54.9946 7.66426 54.868C7.17207 54.6641 6.46895 54.2141 5.98379 53.7992C5.42129 53.3141 5.24551 53.3563 5.61817 53.8766C5.99082 54.3828 6.8416 54.861 8.27598 55.3672C8.74004 55.5289 9.21817 55.7188 9.33067 55.7891C9.68926 56.0071 9.79473 56.3446 9.82989 57.4063L9.85801 58.3555L9.48536 58.5313C9.28145 58.6297 8.87364 58.8617 8.58536 59.0446C8.29707 59.2344 7.95957 59.4032 7.83301 59.4242C7.46035 59.4875 6.96817 59.1571 6.1666 58.3203C5.32285 57.4344 4.66192 56.5414 4.26817 55.7328C4.11348 55.4164 3.95879 55.1563 3.93067 55.1563C3.77598 55.1563 3.79707 55.5008 3.96582 55.8242C4.06426 56.0071 4.14863 56.2039 4.14863 56.2602C4.14863 56.5977 4.90801 57.6383 6.32129 59.2344C6.8416 59.825 7.11582 60.2047 7.33379 60.6407C7.60098 61.1891 7.6291 61.2805 7.62207 61.7657C7.62207 62.1805 7.56582 62.4266 7.38301 62.9258C7.16504 63.5235 7.11582 63.5938 6.47598 64.2336C5.77989 64.9227 5.51973 65.0914 5.40723 64.9227C5.3791 64.8735 5.29473 64.6063 5.23145 64.3321C4.90801 62.9891 4.47207 61.836 3.36113 59.4524C2.13067 56.8016 1.95488 56.1688 1.96191 54.411C1.96191 53.6305 1.99707 53.1805 2.06738 52.9696C2.12363 52.8008 2.18692 52.5477 2.20801 52.4141C2.27832 52.0344 2.91113 50.7688 3.41035 50.0164C4.31738 48.6524 5.4002 47.9141 6.78535 47.7102C7.39004 47.6258 7.72051 47.6258 8.48692 47.7102ZM83.3557 48.0196C83.9745 48.1813 85.1276 48.7719 85.5987 49.1657C85.8307 49.3555 86.2737 49.7985 86.5901 50.1571C87.0893 50.7125 87.1948 50.8883 87.4127 51.4508C87.5534 51.8024 87.701 52.3227 87.7432 52.6039C87.8487 53.3071 87.8346 55.2828 87.7221 55.9297C87.6166 56.4992 86.9135 58.3133 86.4002 59.3399C85.1698 61.7867 84.7409 62.8977 84.5088 64.2617C84.4315 64.7258 84.326 65.1477 84.2768 65.1969C84.1291 65.3516 83.644 65.1617 83.2432 64.8032C82.9971 64.5782 82.8073 64.318 82.5823 63.8539C82.2377 63.1578 82.1252 62.6938 82.1252 62.0117C82.1252 61.0625 82.3995 60.5985 83.7846 59.1992C84.319 58.6508 84.9237 57.9758 85.1205 57.6875C85.6338 56.9422 86.4424 55.3883 86.344 55.3321C86.2174 55.2547 86.0838 55.4164 85.6409 56.2039C84.8955 57.5188 83.8057 58.6297 82.7791 59.143C82.3573 59.3539 82.2166 59.3891 81.9565 59.361C81.4924 59.3047 81.0284 59.0516 80.5151 58.5594L80.051 58.1235L80.058 57.5328C80.0651 56.9211 80.1705 56.4711 80.3604 56.2532C80.5432 56.0492 81.0424 55.8242 81.9495 55.55C83.201 55.1703 83.7002 54.9032 84.2768 54.2985C84.8041 53.743 85.1698 53.1805 85.1346 52.9907C85.1205 52.9133 84.9729 53.0469 84.6705 53.4196C83.0674 55.3813 80.4307 55.7539 79.6291 54.1367C79.1862 53.2438 79.8471 51.7742 80.8174 51.5C81.2182 51.3875 81.3799 51.4508 81.5768 51.7672C81.8651 52.2383 82.4135 52.625 82.7791 52.625C83.208 52.625 83.5948 52.0203 83.6018 51.3594C83.6018 50.811 83.433 50.5578 82.8635 50.2907C81.5909 49.7 80.2268 49.925 79.2987 50.8883C78.8346 51.3735 78.694 51.6407 78.4057 52.5899C78.2018 53.2508 78.1877 53.3633 78.1877 54.3828C78.1948 56.2883 78.258 56.5344 79.4393 58.9883C81.4643 63.2071 81.7596 63.8891 82.0198 64.9227C82.3291 66.1391 82.4346 68.4735 82.2307 69.6758C82.1463 70.175 82.0338 70.4774 81.7245 71.0961C81.1338 72.2914 80.7049 72.9032 79.8682 73.7188C79.2143 74.3657 79.0244 74.5063 78.3916 74.8227C77.5268 75.2586 77.1823 75.336 76.0432 75.336C74.9252 75.336 74.5596 75.2657 73.7932 74.886C72.7244 74.3516 71.7752 73.4024 71.269 72.3477C70.8049 71.3844 70.383 69.711 70.383 68.811C70.383 67.9672 70.8541 66.2657 71.3252 65.3867C71.6557 64.775 72.4362 63.5305 73.0198 62.6797C74.208 60.95 74.9252 59.586 75.0307 58.8336C75.101 58.3485 75.1924 58.1094 75.3119 58.1094C75.4385 58.1094 76.3315 59.0094 76.6057 59.4032C76.9362 59.8883 77.0416 60.4578 76.9291 61.2313C76.8096 62.1102 76.6619 62.3282 75.6565 63.1297C74.1166 64.3602 72.8229 65.7594 72.5416 66.4977C72.4713 66.6805 72.5346 66.6313 73.6034 65.6469C75.2838 64.1071 76.3455 63.3617 76.8518 63.3617C77.351 63.3617 77.8362 63.6852 78.5393 64.4797C78.6729 64.6274 78.8416 64.7821 78.9119 64.8242C79.0315 64.8946 79.0315 64.9297 78.919 65.6328C78.7643 66.6524 78.6166 67.1024 78.3776 67.2782C78.2088 67.3977 78.033 67.4258 76.9713 67.468C75.4526 67.5383 75.3401 67.5664 74.433 68.1992C73.8916 68.5789 73.5471 68.8953 73.5471 69.0078C73.5471 69.0922 73.5963 69.0641 74.3557 68.5649C74.9323 68.1711 75.6494 67.9391 76.2682 67.925C76.7323 67.925 76.8237 67.9461 77.3932 68.2344C78.1737 68.6352 78.2862 68.818 78.2862 69.711C78.2932 70.2102 78.258 70.3719 78.1034 70.7094C77.7588 71.4547 77.0346 72.0453 76.4369 72.0594L76.1909 72.0664L76.0994 71.4688C76.0221 70.9203 75.994 70.85 75.769 70.6391C75.4385 70.3438 75.0096 70.3297 74.4682 70.5969C74.0112 70.8289 73.8987 70.9977 73.8494 71.518C73.7932 72.1157 73.9268 72.5024 74.3135 72.8821C74.7916 73.3602 75.2979 73.5289 76.1135 73.4938C77.1401 73.4516 77.8502 73.0438 78.5955 72.0805C79.1299 71.3774 79.7346 70.3367 79.8823 69.8375C80.1705 68.8883 80.1705 66.3922 79.8752 65.1407C79.7065 64.4305 78.8838 62.3071 78.0612 60.5C76.9151 57.9617 76.5705 56.6328 76.5705 54.7766C76.5705 51.6407 77.6041 49.6227 79.7698 48.5258C80.8245 47.9985 82.3995 47.7735 83.3557 48.0196ZM21.5018 69.8094C21.6635 69.9711 21.6916 70.0555 21.6916 70.4211C21.6916 70.7867 21.6705 70.8641 21.5158 70.9766C21.2979 71.1453 20.8057 71.2227 20.5174 71.1453C19.8916 70.9625 19.8494 70.0133 20.4541 69.6688C20.7424 69.5071 21.2768 69.5774 21.5018 69.8094ZM68.4284 69.7953C68.7799 69.9922 68.9838 70.3297 68.9979 70.7235C69.0119 70.9836 68.9768 71.075 68.801 71.2649C68.2385 71.8625 67.4862 71.7852 67.1346 71.1032C66.9799 70.8078 66.9518 70.2946 67.0784 70.0625C67.2963 69.6547 67.9432 69.5282 68.4284 69.7953ZM23.6252 72.3407C24.8065 72.5938 25.6361 73.0227 28.2307 74.7032C29.6229 75.6032 31.001 76.3133 32.3651 76.8125C32.9346 77.0164 33.3986 77.2203 33.3986 77.2485C33.3986 77.3821 33.0471 77.8532 32.7377 78.1344C32.1049 78.718 31.1065 79.0485 30.2768 78.9571C29.3838 78.8516 29.2854 78.7742 28.1393 77.2555C27.2182 76.0391 26.7893 75.5961 26.051 75.1039C25.6221 74.8227 25.1018 74.6117 25.1018 74.7242C25.1018 74.7453 25.3619 74.9774 25.6854 75.2516C26.3041 75.7789 27.1338 76.7 27.619 77.3961C27.9635 77.8953 28.2658 78.7672 28.2658 79.2735C28.2658 79.5617 28.2236 79.6672 27.9565 80.0258C27.5979 80.5039 26.8385 81.2422 26.7119 81.2422C26.6627 81.2422 26.5572 81.1789 26.4729 81.1016C26.3885 81.0172 26.0721 80.8555 25.7697 80.7289C25.4533 80.6024 25.1651 80.4266 25.0947 80.3282C25.0244 80.2297 24.8979 79.8078 24.8135 79.3789C24.469 77.5789 23.8151 76.0813 23.2174 75.7367C22.9432 75.5821 22.8869 75.6664 23.0697 75.9758C23.808 77.2414 24.1807 78.9008 23.9135 79.7094C23.808 80.0399 23.4213 80.3774 23.0979 80.4407C22.7955 80.4969 22.24 80.3914 21.79 80.2016C21.3541 80.0117 20.651 79.4141 20.5033 79.1047C20.3627 78.8094 20.4049 78.711 20.8127 78.2399C21.3752 77.6 21.3752 76.693 20.8057 76.0953C20.5877 75.8633 20.5104 75.8282 20.2432 75.8282C19.8494 75.8282 19.5471 76.011 19.2377 76.4399C18.9213 76.8688 18.844 77.1992 18.844 78.0641C18.844 78.7532 18.844 78.7602 19.1955 79.4774C19.6104 80.3211 20.0815 80.8625 20.869 81.3899C21.551 81.8469 21.8955 81.9383 23.1611 81.9875C24.7151 82.0508 25.6502 81.9453 27.2111 81.5305C28.8494 81.0875 29.3838 80.9047 31.0432 80.2086C34.1018 78.9219 35.6979 78.5 37.5119 78.5C39.6635 78.5 41.1471 79.0555 42.6588 80.4266C43.0807 80.8063 43.5799 81.5375 43.9385 82.2969L44.1916 82.8242L44.1846 83.9141C44.1776 84.8844 44.1565 85.0742 43.9877 85.6227C43.8893 85.9672 43.7346 86.375 43.6502 86.5367C42.7854 88.2453 40.8518 89.7852 39.1643 90.1086C38.9111 90.1578 38.201 90.193 37.5822 90.193C36.5979 90.193 36.3729 90.1719 35.7611 90.0102C34.8471 89.7641 33.1596 89.0891 30.9096 88.0485C29.9041 87.5844 28.758 87.0992 28.3713 86.9657C27.8018 86.7758 26.7963 86.593 26.3252 86.586C26.0088 86.586 26.3393 85.7563 26.8104 85.3555C27.6119 84.6664 29.2854 84.1953 30.1643 84.4063C30.5861 84.5047 30.8533 84.7157 32.3088 86.0938C33.8065 87.5071 34.9807 88.2102 36.0072 88.3227C36.619 88.386 36.5416 88.2594 35.6557 87.7813C34.3057 87.0571 32.3861 85.461 32.0697 84.8C31.8869 84.4274 31.8799 83.9071 32.0557 83.5274C32.2385 83.1196 33.0119 82.1282 33.2018 82.0438C33.2932 82.0016 33.5041 81.9946 33.6799 82.0227C33.8557 82.0508 34.1721 82.0789 34.3901 82.0789C34.8752 82.086 35.2057 82.1914 35.4518 82.4235C35.6838 82.6344 35.7611 82.8735 35.8174 83.5133C35.9158 84.5469 36.3799 85.475 37.1815 86.2485C37.6666 86.7196 38.3135 87.0992 38.7635 87.1836C39.1713 87.261 39.0799 87.1133 38.5315 86.825C37.8916 86.4946 37.0901 85.6578 36.7596 84.9828C36.5416 84.5469 36.5276 84.4625 36.5276 83.8086C36.5276 83 36.6471 82.6555 37.0901 82.1703C37.4557 81.7625 37.8283 81.636 38.5526 81.6782C39.5791 81.7274 40.3033 82.2336 40.5424 83.0492C40.7112 83.6399 40.676 83.7242 40.1979 83.8227C39.2276 84.0125 39.0166 84.8914 39.7549 85.6297C40.1205 86.0024 40.3385 86.0586 40.8096 85.925C41.2666 85.7914 41.7166 85.4117 41.9627 84.9407C42.1315 84.6172 42.1526 84.5117 42.1526 83.8438C42.1526 83.1477 42.1385 83.0703 41.9276 82.6414C41.6393 82.0578 41.2385 81.6008 40.6901 81.2282C40.0221 80.7711 39.2065 80.518 37.7791 80.3211C37.2096 80.2438 37.0479 80.2438 36.408 80.3563C34.7135 80.6516 32.9276 81.3407 31.4158 82.2758C30.2135 83.0211 29.0182 83.5063 27.2744 83.9774C26.0369 84.3078 25.3057 84.4133 24.2158 84.4133C23.0627 84.4203 22.6127 84.35 21.6354 84.0125C20.0815 83.4782 19.1604 82.8875 18.2955 81.875C17.1705 80.5532 16.9033 79.7235 16.9596 77.7336C16.9877 76.7492 17.0018 76.686 17.2479 76.0883C17.6838 75.0196 18.6682 73.7188 19.0408 73.7188C19.1111 73.7188 19.2658 73.5992 19.3854 73.4516C19.744 73.0086 20.8479 72.5516 22.0572 72.3477C22.7815 72.2282 23.0768 72.2282 23.6252 72.3407ZM68.1682 72.6992C69.5112 72.9383 70.2284 73.3039 71.1635 74.211C72.1338 75.1602 72.7315 76.2078 72.9213 77.2766C73.1534 78.6055 72.7385 80.5532 71.9932 81.643C71.3955 82.5149 70.2424 83.4641 69.251 83.893C68.2596 84.3219 67.5354 84.4344 65.7776 84.4414C63.5205 84.4414 62.733 84.2657 60.6096 83.3024C59.9698 83.0141 59.2948 82.7188 59.0979 82.6485C58.908 82.5782 58.0994 82.2407 57.3049 81.8891C54.6541 80.7289 54.3237 80.6516 52.0596 80.6938C50.4143 80.7219 50.3932 80.7289 49.4018 81.3055C48.6987 81.7133 48.101 82.2899 47.8408 82.8313C47.658 83.211 47.6369 83.3164 47.6369 84.0196C47.6369 84.8985 47.7424 85.1938 48.1713 85.5453C48.8252 86.0727 50.1049 85.7422 50.2385 85.011C50.344 84.4625 49.908 83.7875 49.3455 83.6188C49.1979 83.5766 49.0432 83.4992 49.001 83.45C48.783 83.1828 49.3596 82.3532 49.9854 82.0438C50.1893 81.9383 50.569 81.8117 50.8291 81.7625C51.2862 81.6711 51.3002 81.6782 51.5744 81.861C52.2354 82.311 52.7346 83.0563 52.7346 83.5836C52.7346 84.0266 52.5166 85.0672 52.3549 85.4258C52.0526 86.0867 51.3424 86.7407 50.4776 87.1555C50.0205 87.3805 49.9713 87.5211 50.3369 87.5563C50.9346 87.6196 51.8979 86.9446 52.5237 86.0235C52.8893 85.4891 52.9948 85.2078 53.1987 84.3008C53.2971 83.8578 53.4729 83.3164 53.6135 83.0282C53.8948 82.4446 54.1127 82.3039 55.1955 81.9594C56.2783 81.6219 56.2291 81.6219 56.3276 81.9313C56.3698 82.0719 56.5315 82.4305 56.6721 82.7188C57.0237 83.4219 57.1151 83.7242 57.108 84.1672C57.101 84.7157 56.8198 85.2219 56.0744 86.0094C55.301 86.825 54.626 87.3805 53.7471 87.8938C53.3815 88.1047 53.0862 88.3016 53.0862 88.3227C53.0862 88.4071 53.6346 88.2524 54.2182 87.9992C55.0901 87.6196 55.5612 87.2539 56.9182 85.8828C58.1627 84.6242 58.5002 84.343 58.9362 84.2024C59.2877 84.0899 60.0682 84.0969 60.5041 84.2235C61.4041 84.4766 61.6151 84.5961 62.1635 85.1727C62.6627 85.693 63.1901 86.5227 63.1057 86.6563C63.0916 86.6844 62.6838 86.7266 62.2057 86.7547C60.6448 86.8391 59.9065 87.0852 56.6721 88.5688C55.4487 89.1383 54.9916 89.3141 53.8385 89.6727C53.1776 89.8766 50.9557 90.0102 50.1049 89.9047C49.4229 89.8133 48.7197 89.5461 48.108 89.1313C47.6299 88.8008 46.9127 88.0555 46.6526 87.6055C46.1112 86.6914 45.6893 85.2852 45.6963 84.4485C45.7033 83.8649 45.9565 82.7891 46.2377 82.1422C46.7791 80.9117 47.6862 79.9063 48.7197 79.386C49.6971 78.9008 50.1752 78.8164 51.9612 78.8164C53.6908 78.8235 54.2041 78.8938 55.5049 79.3438C56.3838 79.6461 58.1065 80.3282 58.8658 80.6657C59.126 80.7852 59.6815 81.0102 60.0963 81.1649C60.5112 81.3196 61.1088 81.5586 61.4252 81.6922C62.6557 82.2336 64.1815 82.4727 65.9393 82.4164C67.5284 82.3672 68.3862 82.1352 69.3354 81.4953C70.7698 80.5321 71.4869 79.0696 71.1213 77.8321C70.8752 76.9883 70.5307 76.5032 70.0174 76.2922C69.2088 75.9547 68.4213 76.5242 68.4987 77.3891C68.5338 77.6914 68.583 77.7758 69.0401 78.2539C69.3143 78.5422 69.5393 78.8305 69.5393 78.8938C69.5393 79.1047 69.0893 79.85 68.7869 80.1594C68.4002 80.5461 68.119 80.6305 67.4018 80.5953C66.5721 80.5532 66.2768 80.3774 65.9534 79.7375C65.7354 79.2946 65.7073 79.1821 65.7073 78.6828C65.7073 77.8039 65.9674 77.3188 67.2049 75.9055C67.6549 75.3852 67.7182 75.2657 67.5284 75.2657C67.3807 75.2657 65.9815 76.6297 65.7284 77.0235C65.3768 77.5719 65.1729 78.3524 65.1096 79.3789C65.0463 80.4688 64.9479 80.7711 64.5893 80.9188C64.3783 81.0032 62.7963 81.3828 62.6346 81.3828C62.6065 81.3828 62.4658 81.2141 62.3252 81.0032C62.1846 80.7922 61.9455 80.5321 61.7979 80.4266C61.6432 80.3211 61.4182 80.1242 61.2987 79.9907C61.0948 79.7586 61.0877 79.7164 61.1229 79.3016C61.1791 78.5352 61.8682 77.4383 62.951 76.3696C63.6119 75.7227 64.1182 75.35 65.0744 74.8086C65.4612 74.5907 65.8268 74.3657 65.883 74.3024C65.9744 74.2039 65.9604 74.1969 65.7424 74.2321C65.3135 74.2883 64.2518 74.7805 63.5346 75.2516C62.6416 75.8422 61.5799 76.8617 60.8557 77.8321C60.2088 78.6969 59.8291 79.0836 59.5198 79.2032C58.9713 79.4211 57.7901 79.2032 57.1432 78.7742C56.7565 78.5211 56.2643 77.9797 56.1658 77.7055C56.1237 77.6 56.0463 77.5157 55.983 77.5157C55.8846 77.5086 55.8987 77.4875 56.0252 77.375C56.1729 77.2485 56.3416 77.2063 57.3049 77.0375C58.0362 76.9039 59.0065 76.3485 60.6588 75.111C62.4237 73.7961 64.2448 72.861 65.5666 72.6008C66.0377 72.5094 67.3807 72.5586 68.1682 72.6992ZM16.4393 75.5891L16.144 76.2852L16.158 77.9938C16.1791 79.9274 16.1932 79.8711 15.6377 79.6602C15.4197 79.5758 15.265 79.4563 15.1455 79.2735C14.9486 78.9711 14.6252 78.7321 14.0979 78.493C13.683 78.2961 12.7971 77.4524 12.7971 77.2555C12.7971 77.1782 12.6002 76.8407 12.3541 76.5172C11.9322 75.9477 11.6861 75.5117 11.7565 75.4414C11.7705 75.4203 12.2979 75.4414 12.9166 75.4907C14.344 75.5891 14.9697 75.5188 15.9752 75.1391C16.376 74.9844 16.7065 74.8719 16.7205 74.8789C16.7275 74.886 16.601 75.2024 16.4393 75.5891ZM74.433 75.9336C75.3471 76.1024 76.4018 76.1657 77.2666 76.0953C77.7026 76.0602 78.0752 76.0461 78.0963 76.0602C78.1526 76.1235 77.4776 76.9532 77.0979 77.2766C76.8799 77.4664 76.5916 77.7969 76.4651 78.0078C76.1768 78.486 76.0151 78.6336 75.4807 78.9149C75.2487 79.0344 74.8268 79.3227 74.5385 79.5547C73.7721 80.1664 73.4276 80.1946 73.4979 79.6461C73.6877 78.1836 73.6948 78.05 73.6174 77.1782C73.5752 76.686 73.519 76.1797 73.4979 76.0532C73.4627 75.8422 73.4698 75.8282 73.6737 75.8282C73.7862 75.8282 74.1307 75.8774 74.433 75.9336ZM45.4854 79.611C45.8018 79.8641 45.9424 80.1383 45.8791 80.3844C45.8229 80.6235 45.2041 81.2422 45.0283 81.2422C44.7822 81.2422 44.269 80.9328 44.1354 80.7008C43.9737 80.4266 43.9596 79.9625 44.1072 79.7446C44.3885 79.3086 45.0354 79.2453 45.4854 79.611ZM45.3237 87.0992C46.0408 88.3016 46.3994 88.8078 47.1026 89.5883C47.4541 89.9821 47.7424 90.3407 47.7424 90.3828C47.7424 90.425 47.6229 90.5094 47.4822 90.5657C47.2713 90.6571 47.0744 90.6711 46.4697 90.6289L45.7244 90.5797L45.6752 90.7555C45.6119 91.0086 45.2533 91.2407 44.8666 91.2758C44.5362 91.311 44.2971 91.1914 43.7205 90.7274C43.5447 90.5867 43.5096 90.5797 43.2143 90.6641C42.7783 90.7836 41.6604 90.7344 41.5127 90.5797C41.4072 90.4813 41.4635 90.418 42.1244 89.9188C42.9471 89.3 43.9596 88.3016 44.0721 88.0133C44.1143 87.9008 44.2619 87.5282 44.3955 87.1766C44.5362 86.825 44.6487 86.4875 44.6487 86.4313C44.6487 86.2977 44.719 86.2274 44.7963 86.2766C44.8315 86.2977 45.0705 86.6703 45.3237 87.0992Z" fill="#3AB037"/>
<path d="M5.02749 52.6882C5.0064 52.7234 5.06968 52.8429 5.16812 52.9554C5.35093 53.1593 5.39312 53.1101 5.27359 52.8078C5.20328 52.6179 5.10484 52.5757 5.02749 52.6882Z" fill="#3AB037"/>
</g>
<path d="M54.6084 66.7656C54.406 66.2792 53.8331 66.0408 53.3458 66.2425C52.8584 66.4443 52.6229 67.0192 52.8237 67.5052C53.025 67.9922 53.5984 68.2293 54.0854 68.0282C54.574 67.8263 54.8081 67.2531 54.6084 66.7656Z" fill="white"/>
<g clip-path="url(#clip1)">
<path d="M57.6994 38.0544L57.7039 37.3403L56.9897 37.3447C53.5396 37.3663 50.696 40.1044 50.5035 43.5138L45.978 48.0393V34.1452L48.955 31.1882C51.8416 31.0361 54.1632 28.6324 54.1816 25.7142L54.186 25L53.4718 25.0044C50.5825 25.0227 48.1985 27.2987 48.0036 30.1452L45.9779 32.1573V30.3407C45.9779 29.9511 45.6622 29.6354 45.2726 29.6354C44.8831 29.6354 44.5673 29.9511 44.5673 30.3407V43.2695L41.7468 40.4471L41.7755 40.4253C43.9681 38.7616 44.4207 35.6073 42.7845 33.3941L42.3599 32.8197L41.7911 33.2514C40.085 34.5462 39.433 36.7433 39.9984 38.6973L39.6934 38.3921C39.605 36.679 38.8839 35.0676 37.6418 33.8256C36.3241 32.508 34.5907 31.776 32.761 31.7645L32.0469 31.7601L32.0513 32.4742C32.0628 34.304 32.7949 36.0373 34.1126 37.355C35.363 38.6055 36.988 39.3272 38.7141 39.4076L39.2047 39.8986C38.8224 39.807 38.4291 39.7576 38.0318 39.7576C36.2325 39.7576 34.5548 40.7042 33.6535 42.228L33.2899 42.8427L33.9092 43.1986C34.6619 43.6312 35.5232 43.8598 36.3998 43.8598C38.1785 43.8598 39.8369 42.9337 40.7455 41.4404L44.5673 45.2647V49.7335C44.5671 49.7393 44.5673 53.0269 44.5673 53.0269L40.4816 48.9412C40.2062 48.6659 39.7597 48.6658 39.4841 48.9412C39.2088 49.2166 39.2088 49.6633 39.4841 49.9386L44.5673 55.0219V63.5893H34.9777C34.5882 63.5893 34.2724 63.905 34.2724 64.2946C34.2724 64.6841 34.5882 64.9999 34.9777 64.9999H54.523C54.9125 64.9999 55.2282 64.6841 55.2282 64.2946C55.2282 63.905 54.9125 63.5893 54.523 63.5893H45.9779V50.0342L48.5921 47.4201C49.6283 48.5287 51.0779 49.1576 52.6401 49.1576C53.8652 49.1576 55.0193 48.7695 55.9775 48.0354L56.5445 47.601L56.1031 47.0397C55.058 45.7105 53.4708 44.948 51.7485 44.948C51.5011 44.948 51.2567 44.9646 51.0162 44.996L51.4694 44.5428C54.9071 44.3806 57.6777 41.5248 57.6994 38.0544ZM52.6838 26.5022C52.3458 28.0781 51.0633 29.3605 49.4874 29.6986C49.8256 28.1227 51.1079 26.8403 52.6838 26.5022ZM42.0555 34.9425C42.5852 36.1905 42.3707 37.6857 41.5115 38.7344C40.9816 37.4863 41.1963 35.9911 42.0555 34.9425ZM36.4 42.4495C36.046 42.4495 35.6958 42.3978 35.3613 42.2976C36.0435 41.5875 37.0098 41.1684 38.032 41.1684C38.3861 41.1684 38.7362 41.2201 39.0708 41.3202C38.3884 42.0303 37.422 42.4495 36.4 42.4495ZM35.11 36.3578C34.2437 35.4915 33.6941 34.4031 33.5209 33.2341C34.6901 33.4073 35.7783 33.9571 36.6446 34.8233C37.5109 35.6896 38.0605 36.7778 38.2337 37.9469C37.0647 37.7737 35.9763 37.224 35.11 36.3578ZM54.4418 47.3359C53.8892 47.6065 53.2781 47.747 52.6401 47.747C51.6294 47.747 50.6826 47.3978 49.9469 46.7696C50.4995 46.4991 51.1107 46.3586 51.7486 46.3586C52.7594 46.3585 53.7061 46.7078 54.4418 47.3359ZM53.4194 40.271C54.1994 39.491 55.175 38.9901 56.2242 38.8199C56.0541 39.8693 55.5532 40.8449 54.7732 41.6248C53.9933 42.4048 53.0177 42.9058 51.9684 43.0759C52.1386 42.0266 52.6395 41.051 53.4194 40.271Z" fill="white"/>
</g>
<defs>
<clipPath id="clip0">
<rect y="2" width="89.7188" height="90" fill="white"/>
</clipPath>
<clipPath id="clip1">
<rect x="32" y="25" width="25.7516" height="40" fill="white"/>
</clipPath>
</defs>
</svg>
