<svg width="40" height="40" viewBox="0 0 40 40" fill="none" xmlns="http://www.w3.org/2000/svg">
<path d="M29.1724 0H10.8276C4.85718 0 0 4.85718 0 10.8276V29.1727C0 35.1428 4.85718 40 10.8276 40H29.1727C35.1428 40 40 35.1428 40 29.1727V10.8276C40 4.85718 35.1428 0 29.1724 0V0ZM37.655 29.1727C37.655 33.8498 33.8498 37.655 29.1724 37.655H10.8276C6.15021 37.655 2.34497 33.8498 2.34497 29.1727V10.8276C2.34497 6.15021 6.15021 2.34497 10.8276 2.34497H29.1727C33.8498 2.34497 37.655 6.15021 37.655 10.8276V29.1727Z" fill="white"/>
<path d="M19.9997 9.06299C13.9688 9.06299 9.0625 13.9693 9.0625 20.0002C9.0625 26.0311 13.9688 30.9374 19.9997 30.9374C26.0306 30.9374 30.9369 26.0311 30.9369 20.0002C30.9369 13.9693 26.0306 9.06299 19.9997 9.06299ZM19.9997 28.5924C15.2621 28.5924 11.4075 24.738 11.4075 20.0002C11.4075 15.2626 15.2621 11.408 19.9997 11.408C24.7375 11.408 28.5919 15.2626 28.5919 20.0002C28.5919 24.738 24.7375 28.5924 19.9997 28.5924Z" fill="white"/>
<path d="M31.1986 5.17871C29.4164 5.17871 27.9668 6.6286 27.9668 8.41052C27.9668 10.1927 29.4164 11.6426 31.1986 11.6426C32.9808 11.6426 34.4307 10.1927 34.4307 8.41052C34.4307 6.6283 32.9808 5.17871 31.1986 5.17871ZM31.1986 9.29736C30.7097 9.29736 30.3118 8.89941 30.3118 8.41052C30.3118 7.92133 30.7097 7.52368 31.1986 7.52368C31.6878 7.52368 32.0858 7.92133 32.0858 8.41052C32.0858 8.89941 31.6878 9.29736 31.1986 9.29736Z" fill="white"/>
</svg>
