<svg width="167" height="272" viewBox="0 0 167 272" fill="none" xmlns="http://www.w3.org/2000/svg">
<path d="M93.5954 207.021C69.9308 207.256 53.5433 224.315 35.4282 237.157C44.8882 222.963 52.8266 207.811 59.1121 191.954L59.6541 192.27C58.7926 192.793 59.1078 194.303 60.1711 194.24C90.3518 192.298 115.684 161.912 125.794 136.053C126.705 133.763 123.574 132.532 121.968 133.816C110.229 143.801 96.3666 148.782 84.1548 157.891C75.113 164.578 68.3892 175.057 62.1816 184.726C62.7408 183.257 63.3185 181.756 63.8777 180.287C64.4369 178.818 65.1826 176.518 65.8192 174.624C65.9661 174.526 66.0772 174.384 66.1359 174.217C66.1945 174.051 66.1974 173.87 66.1441 173.702C69.854 162.744 72.8944 151.395 75.9028 140.027C86.6975 143.515 99.5867 134.929 108.433 129.967C121.949 122.432 132.5 112.138 136.928 97.0247C137.567 94.833 134.414 92.6904 132.847 94.6392C118.673 112.009 93.7187 113.499 78.7007 129.605C81.8155 117.577 85.6815 105.757 90.276 94.2131C102.79 96.1355 115.592 94.2886 127.049 88.9079C138.505 83.5272 148.099 74.8566 154.605 64.0015C155.741 62.0575 153.186 59.1104 151.33 60.6762C140.868 68.3289 128.427 69.7797 116.129 72.5965C109.601 73.7246 103.3 75.904 97.4708 79.0497C101.678 71.3206 106.78 64.1138 112.673 57.5784C112.844 57.8286 113.067 58.039 113.326 58.1953C113.586 58.3515 113.876 58.45 114.177 58.4838C114.478 58.5177 114.783 58.4863 115.07 58.3916C115.358 58.2969 115.622 58.1412 115.844 57.9352C126.5 49.5839 137.574 44.9826 146.592 34.6046C154.202 25.2373 160.774 15.0727 166.194 4.28877C167.553 1.96235 164.31 -0.831445 162.352 1.27376C150.398 14.0403 131.899 16.7813 120.086 29.6729C114.713 35.4257 107.186 47.0597 111.128 55.3923C99.5337 65.5637 90.6376 78.4453 85.232 92.8896C85.9259 71.635 85.2458 50.3572 83.1957 29.1892C82.9634 26.6591 78.7645 25.573 78.3558 28.5409C75.2543 51.9972 54.2457 87.1346 80.8758 104.368C75.1603 121.464 71.4137 139.584 66.4351 155.786L65.604 158.379C63.5305 148.942 60.7548 139.674 57.3001 130.65C54.1012 118.754 49.6132 107.242 43.9158 96.3181C43.6334 95.8598 43.2113 95.5042 42.7116 95.3038C42.2119 95.1035 41.6611 95.069 41.1404 95.2054C40.6197 95.3418 40.1568 95.6419 39.8198 96.0614C39.4828 96.4809 39.2896 96.9977 39.2687 97.5355C39.5934 112.861 35.3099 131.094 39.4359 145.991C42.5039 157.062 51.4957 165.61 60.8743 172.033C55.8489 186.683 49.6418 200.9 42.3142 214.545C42.0721 214.959 41.8485 215.341 41.6064 215.756C41.7235 196.685 36.0172 178.031 25.2497 162.284C24.9562 161.809 24.5039 161.453 23.9731 161.279C23.4422 161.106 22.867 161.126 22.3496 161.335C21.8321 161.545 21.4059 161.932 21.1464 162.426C20.8869 162.92 20.8109 163.491 20.9319 164.036C24.6397 184.332 13.1247 212.961 36.17 224.764C25.8279 240.14 13.9108 254.397 0.61176 267.302C-1.07192 269.012 1.10021 272.248 3.19837 270.781C12.5415 264.11 20.8941 256.152 28.0083 247.144C53.4026 259.977 81.4128 228.376 95.1503 211.094C95.4431 210.756 95.6387 210.345 95.7163 209.905C95.794 209.464 95.7507 209.011 95.5912 208.593C95.4317 208.175 95.1618 207.808 94.8104 207.532C94.459 207.255 94.0391 207.078 93.5954 207.021ZM94.5244 156.983C102.469 152.679 110.189 147.972 117.653 142.881C112.226 153.835 104.694 163.612 95.4875 171.656C85.7189 180.098 74.9511 184.323 63.9855 190.056C73.3527 177.616 80.5698 164.903 94.5244 156.983ZM79.3681 45.2518C80.3395 63.3498 80.3727 81.3698 79.9513 99.5088C65.4321 85.1218 73.6089 64.0334 79.3681 45.2518ZM124.84 31.6393C129.821 27.2473 135.428 23.6224 141.479 20.8841C146.358 18.3914 151.112 16.0395 155.518 13.1849C151.124 20.8308 145.851 27.9368 139.806 34.358C131.983 42.3989 120.517 45.9155 113.444 54.1378C110.856 47.8795 121.8 34.3518 124.808 31.6206L124.84 31.6393ZM93.8112 86.1889C94.0067 86.2561 94.2154 86.2755 94.4199 86.2454L95.2227 86.116C95.3353 86.0518 95.429 85.9591 95.4944 85.8473C95.5598 85.7354 95.5946 85.6082 95.5953 85.4786C97.4058 84.8694 100.257 82.7731 98.4593 83.4329C101.902 82.1531 105.04 80.2245 108.573 79.083C113.784 77.5873 119.078 76.3987 124.428 75.5233C131.023 74.3942 137.494 72.6357 143.753 70.2719C137.393 77.3775 129.387 82.8158 120.436 86.111C111.485 89.4062 101.862 90.458 92.4085 89.1743C92.8716 88.1623 93.3348 87.1504 93.8112 86.1889ZM77.2378 135.035C77.4459 135.069 77.659 135.049 77.8574 134.978C78.0558 134.907 78.2331 134.787 78.3731 134.63C91.5028 120.071 112.078 117.218 127.422 106.262C122.483 113.805 115.797 120.047 107.932 124.458C100.776 128.869 86.1592 137.556 77.2378 135.035ZM42.9797 137.074C42.7522 127.363 43.7155 117.665 44.158 107.833C47.4226 115.638 50.2394 123.623 52.5947 131.748C56.0904 143.112 61.7783 155.63 61.1084 167.68C61.0968 167.945 61.1299 168.21 61.2063 168.464C52.0232 159.804 43.2868 150.893 42.9797 137.074ZM25.0681 191.723C25.3168 185.369 26.1183 179.168 26.2102 172.936C34.086 187.592 37.7391 204.144 36.7628 220.749C32.7589 217.098 29.6286 212.593 27.604 207.568C25.5794 202.543 24.7127 197.127 25.0681 191.723ZM33.0519 245.175C51.2351 233.826 66.5869 215.392 88.4008 212.322C75.1582 228.611 54.4297 250.316 33.0332 245.206L33.0519 245.175Z" fill="white"/>
</svg>
