<svg width="40" height="33" viewBox="0 0 40 33" fill="none" xmlns="http://www.w3.org/2000/svg">
<path d="M40 3.8475C38.5125 4.5 36.9275 4.9325 35.275 5.1425C36.975 4.1275 38.2725 2.5325 38.8825 0.61C37.2975 1.555 35.5475 2.2225 33.6825 2.595C32.1775 0.9925 30.0325 0 27.6925 0C23.1525 0 19.4975 3.685 19.4975 8.2025C19.4975 8.8525 19.5525 9.4775 19.6875 10.0725C12.87 9.74 6.8375 6.4725 2.785 1.495C2.0775 2.7225 1.6625 4.1275 1.6625 5.64C1.6625 8.48 3.125 10.9975 5.305 12.455C3.9875 12.43 2.695 12.0475 1.6 11.445C1.6 11.47 1.6 11.5025 1.6 11.535C1.6 15.52 4.4425 18.83 8.17 19.5925C7.5025 19.775 6.775 19.8625 6.02 19.8625C5.495 19.8625 4.965 19.8325 4.4675 19.7225C5.53 22.97 8.545 25.3575 12.13 25.435C9.34 27.6175 5.7975 28.9325 1.9625 28.9325C1.29 28.9325 0.645 28.9025 0 28.82C3.6325 31.1625 7.9375 32.5 12.58 32.5C27.67 32.5 35.92 20 35.92 9.165C35.92 8.8025 35.9075 8.4525 35.89 8.105C37.5175 6.95 38.885 5.5075 40 3.8475Z" fill="white"/>
</svg>
